HIERARCHY
ROOT ui
{
	 OFFSET 0 0 0
	 CHANNELS 3 XPosition YPosition Z Position
	 EndSite
	 {
	 OFFSET 0 -1 0
	 }
}
ROOT li
{
	 OFFSET 0 0 0
	 CHANNELS 3 XPosition YPosition Z Position
	 EndSite
	 {
	 OFFSET 0 -1 0
	 }
}
ROOT ul
{
	 OFFSET 0 0 0
	 CHANNELS 3 XPosition YPosition Z Position
	 EndSite
	 {
	 OFFSET 0 -1 0
	 }
}
ROOT ll
{
	 OFFSET 0 0 0
	 CHANNELS 3 XPosition YPosition Z Position
	 EndSite
	 {
	 OFFSET 0 -1 0
	 }
}
ROOT tt
{
	 OFFSET 0 0 0
	 CHANNELS 3 XPosition YPosition Z Position
	 EndSite
	 {
	 OFFSET 0 -1 0
	 }
}
ROOT tb
{
	 OFFSET 0 0 0
	 CHANNELS 3 XPosition YPosition Z Position
	 EndSite
	 {
	 OFFSET 0 -1 0
	 }
}
ROOT td
{
	 OFFSET 0 0 0
	 CHANNELS 3 XPosition YPosition Z Position
	 EndSite
	 {
	 OFFSET 0 -1 0
	 }
}
ROOT v
{
	 OFFSET 0 0 0
	 CHANNELS 3 XPosition YPosition Z Position
	 EndSite
	 {
	 OFFSET 0 -1 0
	 }
}
ROOT bn
{
	 OFFSET 0 0 0
	 CHANNELS 3 XPosition YPosition Z Position
	 EndSite
	 {
	 OFFSET 0 -1 0
	 }
}
MOTION
Frames: 13
Frame Time: 0.002
-0.0011130739450454711	-0.0011018699407577515	0		0.4947914428710937	-2.31997216796875	0		-1.1471907958984375	0.005737613201141358	0		-0.769264892578125	-2.31088427734375	0		1.5812520751953125	-0.46933847045898436	0		3.13365185546875	0.009167791366577149	0		4.53633203125	0.13646316528320312	0		5.55691943359375	0.23775949096679688	0		-0.3529486999511719	5.88867138671875	0		
-0.004106478214263916	-0.003991803884506226	0		0.44587677001953124	-2.312010986328125	0		-1.1841011962890624	0.007556244850158691	0		-0.804258056640625	-2.307123779296875	0		1.581291015625	-0.46936865234375	0		3.16955615234375	3.704060018062592E-4	0		4.54536279296875	0.1341075439453125	0		5.5599091796875	0.24933351135253906	0		-0.33837109375	5.89947265625	0		
-9.956769943237304E-4	-0.0010075299739837646	0		0.49874468994140625	-2.316006591796875	0		-1.1671839599609375	3.3484798669815064E-4	0		-0.7894020385742188	-2.3113271484375	0		1.5902618408203124	-0.4725798034667969	0		3.1561494140625	0.028512502670288088	0		4.5495380859375	0.13983804321289062	0		5.5640859375	0.23142428588867187	0		-0.337052001953125	5.89751318359375	0		
0.0021064660549163818	0.0019667179584503176	0		0.4508742980957031	-2.3050791015625	0		-1.1758682861328125	0.014596207618713379	0		-0.7874351196289062	-2.309293701171875	0		1.5874951171875	-0.46157177734375	0		3.148620849609375	-0.0014738249778747559	0		4.54958984375	0.13964166259765626	0		5.5629345703125	0.2622051696777344	0		-0.3367103271484375	5.8975625	0		
-9.138569831848145E-4	-9.517980217933655E-4	0		0.4985974426269531	-2.316000244140625	0		-1.183964111328125	0.007832056045532226	0		-0.8003927612304688	-2.30298291015625	0		1.5844329833984374	-0.46556729125976565	0		3.181921142578125	0.011758095741271972	0		4.54551904296875	0.1335216064453125	0		5.56417822265625	0.2357731170654297	0		-0.3373477783203125	5.89962109375	0		
-8.847960233688355E-4	-9.370070099830628E-4	0		0.44558612060546876	-2.311986328125	0		-1.1469608154296875	0.006188062191009522	0		-0.7696121826171874	-2.31052783203125	0		1.6243941650390625	-0.46839834594726565	0		3.133882568359375	0.008551515579223633	0		4.54070947265625	0.14141902160644532	0		5.56001416015625	0.24766461181640625	0		-0.3512527770996094	5.888923828125	0		
-0.003920186042785645	-0.0038714139461517335	0		0.5062231140136719	-2.3271767578125	0		-1.1469383544921874	0.006246026992797852	0		-0.7937850341796875	-2.315021484375	0		1.584441650390625	-0.46569009399414063	0		3.148902099609375	0.008128836631774902	0		4.54558203125	0.13312873840332032	0		5.5570771484375	0.2352822723388672	0		-0.33579736328125	5.89765478515625	0		
-8.464879989624023E-4	-9.297549724578858E-4	0		0.4563061828613281	-2.318229736328125	0		-1.16297705078125	0.00360522198677063	0		-0.7897891845703126	-2.311066162109375	0		1.5933785400390625	-0.4689303283691406	0		3.157684326171875	-0.004175401210784912	0		4.5387216796875	0.13907272338867188	0		5.567125	0.24133512878417968	0		-0.3335726318359375	5.89563037109375	0		
0.005300219058990478	0.005947375774383545	0		0.5023737487792969	-2.31114794921875	0		-1.1588880615234376	0.007567429065704346	0		-0.7867909545898437	-2.30709912109375	0		1.5933719482421875	-0.4689979248046875	0		3.184351806640625	0.029183969497680665	0		4.54973681640625	0.1386757049560547	0		5.5630048828125	0.26018255615234376	0		-0.3343095703125	5.89665771484375	0		
-8.25689971446991E-4	-9.434570074081421E-4	0		0.47226528930664063	-2.312590576171875	0		-1.1469005126953125	0.0063674898147583	0		-0.7560081176757812	-2.314681396484375	0		1.62437744140625	-0.4686683959960937	0		3.14290234375	0.005861830234527588	0		4.545634765625	0.13258016967773437	0		5.560044921875	0.24611997985839842	0		-0.3350660400390625	5.8976806640625	0		
-8.183940052986145E-4	-9.548469781875611E-4	0		0.496093017578125	-2.3180849609375	0		-1.183866455078125	0.00811582088470459	0		-0.8028939819335937	-2.304752685546875	0		1.584415771484375	-0.46595465087890625	0		3.153044677734375	0.012548709869384765	0		4.5408037109375	0.14051231384277343	0		5.5570986328125	0.2338105010986328	0		-0.33486099243164064	5.89768017578125	0		
-8.117460012435913E-4	-9.679809808731079E-4	0		0.4710921020507812	-2.314625732421875	0		-1.1838594970703125	0.008138893127441406	0		-0.7592201538085938	-2.31859814453125	0		1.58133056640625	-0.46995697021484373	0		3.142916748046875	0.0056356887817382816	0		4.5456572265625	0.13226406860351564	0		5.5571015625	0.23349864196777342	0		-0.3346737976074219	5.89767724609375	0		
-8.046180009841919E-4	-9.818180203437804E-4	0		0.4559597473144531	-2.3183583984375	0		-1.1728934326171876	0.005943083763122558	0		-0.8250690307617188	-2.307302001953125	0		1.5933419189453124	-0.46924951171875	0		3.168232177734375	0.02104273223876953	0		4.54978466796875	0.13804486083984374	0		5.5630185546875	0.25888723754882814	0		-0.3335229797363281	5.8966533203125	0		
